<svg xmlns="http://www.w3.org/2000/svg" width="480" height="480" viewBox="0 0 480 480"><circle cx="206.7" cy="428.8" r="1.31" fill="#c8102e" opacity="0.3"/><circle cx="472" cy="58.1" r="2.14" fill="#c8102e" opacity="0.37"/><circle cx="313.4" cy="32.3" r="1.94" fill="#c8102e" opacity="0.33"/><circle cx="11" cy="321.4" r="1.9" fill="#c8102e" opacity="0.64"/><circle cx="104.5" cy="257.4" r="1.56" fill="#c8102e" opacity="0.64"/><circle cx="86.1" cy="122.5" r="2.64" fill="#c8102e" opacity="0.56"/><circle cx="305.1" cy="12.4" r="2.66" fill="#c8102e" opacity="0.62"/><circle cx="116.5" cy="410.5" r="1.92" fill="#c8102e" opacity="0.47"/><circle cx="405.4" cy="148.2" r="1.84" fill="#c8102e" opacity="0.58"/><circle cx="45" cy="443.2" r="2.49" fill="#c8102e" opacity="0.59"/><circle cx="374.1" cy="28" r="2.16" fill="#c8102e" opacity="0.41"/><circle cx="15.7" cy="415.7" r="2.59" fill="#c8102e" opacity="0.33"/><circle cx="140.2" cy="88" r="2.35" fill="#c8102e" opacity="0.31"/><circle cx="80.8" cy="417.6" r="1.9" fill="#c8102e" opacity="0.54"/><circle cx="407" cy="100.2" r="1.85" fill="#c8102e" opacity="0.44"/><circle cx="60.6" cy="316.5" r="2.66" fill="#c8102e" opacity="0.4"/><circle cx="158" cy="464.1" r="2.76" fill="#c8102e" opacity="0.35"/><circle cx="338.7" cy="371.4" r="2.96" fill="#c8102e" opacity="0.44"/><circle cx="143.2" cy="20.5" r="2.94" fill="#c8102e" opacity="0.41"/><circle cx="211.7" cy="266.7" r="1.56" fill="#c8102e" opacity="0.42"/><circle cx="182.2" cy="50.3" r="1.69" fill="#c8102e" opacity="0.4"/><circle cx="267.5" cy="131.3" r="2.81" fill="#c8102e" opacity="0.55"/><circle cx="340" cy="70.2" r="1.41" fill="#c8102e" opacity="0.37"/><circle cx="108.8" cy="397" r="2.48" fill="#c8102e" opacity="0.31"/><circle cx="477.1" cy="112.9" r="2.04" fill="#c8102e" opacity="0.6"/><circle cx="306.2" cy="310.4" r="1.97" fill="#c8102e" opacity="0.33"/><circle cx="283.1" cy="92.7" r="2.46" fill="#c8102e" opacity="0.53"/><circle cx="225.9" cy="436.4" r="2.26" fill="#c8102e" opacity="0.44"/><circle cx="83" cy="41.2" r="1.48" fill="#c8102e" opacity="0.54"/><circle cx="311.5" cy="97.8" r="2.25" fill="#c8102e" opacity="0.59"/><circle cx="32.3" cy="170.4" r="1.57" fill="#c8102e" opacity="0.39"/><circle cx="162.2" cy="365.2" r="1.72" fill="#c8102e" opacity="0.54"/><circle cx="212.8" cy="337.4" r="1.56" fill="#c8102e" opacity="0.65"/><circle cx="176.8" cy="434.7" r="1.27" fill="#c8102e" opacity="0.44"/><circle cx="44.3" cy="378.6" r="1.34" fill="#c8102e" opacity="0.39"/><circle cx="65.6" cy="328.5" r="1.57" fill="#c8102e" opacity="0.61"/><circle cx="129.1" cy="132.4" r="2.23" fill="#c8102e" opacity="0.58"/><circle cx="188.3" cy="331.6" r="1.97" fill="#c8102e" opacity="0.62"/><circle cx="293.8" cy="370.8" r="2.14" fill="#c8102e" opacity="0.49"/><circle cx="15.8" cy="468.9" r="1.91" fill="#c8102e" opacity="0.48"/><circle cx="400.5" cy="455.5" r="1.24" fill="#c8102e" opacity="0.35"/><circle cx="218.4" cy="460.2" r="2.23" fill="#c8102e" opacity="0.54"/><circle cx="246.6" cy="459.5" r="1.29" fill="#c8102e" opacity="0.32"/><circle cx="333.5" cy="451.8" r="1.32" fill="#c8102e" opacity="0.32"/><circle cx="217.8" cy="193" r="2.56" fill="#c8102e" opacity="0.51"/><circle cx="238.8" cy="236.8" r="2.22" fill="#c8102e" opacity="0.32"/><circle cx="339.6" cy="4.3" r="2.99" fill="#c8102e" opacity="0.53"/><circle cx="334.8" cy="200.3" r="1.76" fill="#c8102e" opacity="0.36"/><circle cx="126.8" cy="129.4" r="2.67" fill="#c8102e" opacity="0.49"/><circle cx="361.2" cy="136.7" r="2.85" fill="#c8102e" opacity="0.61"/><circle cx="468" cy="478.9" r="2.49" fill="#c8102e" opacity="0.53"/><circle cx="310.8" cy="398.1" r="2.66" fill="#c8102e" opacity="0.33"/><circle cx="236.4" cy="236.6" r="2.96" fill="#c8102e" opacity="0.39"/><circle cx="201.3" cy="356" r="2.53" fill="#c8102e" opacity="0.62"/><circle cx="283.8" cy="70.3" r="2.44" fill="#c8102e" opacity="0.48"/><circle cx="180.1" cy="395.8" r="1.98" fill="#c8102e" opacity="0.62"/><circle cx="199.4" cy="133.3" r="1.91" fill="#c8102e" opacity="0.56"/><circle cx="168.7" cy="363.4" r="2.51" fill="#c8102e" opacity="0.33"/><circle cx="339.6" cy="463.3" r="2.68" fill="#c8102e" opacity="0.57"/><circle cx="248.8" cy="72.4" r="2.98" fill="#c8102e" opacity="0.35"/><circle cx="378" cy="403.1" r="2.35" fill="#c8102e" opacity="0.43"/><circle cx="121.6" cy="171.2" r="1.94" fill="#c8102e" opacity="0.38"/><circle cx="317" cy="245.2" r="2.32" fill="#c8102e" opacity="0.39"/><circle cx="433.6" cy="463.7" r="1.53" fill="#c8102e" opacity="0.33"/><circle cx="261.2" cy="384.4" r="2.77" fill="#c8102e" opacity="0.65"/><circle cx="317.4" cy="48" r="2.16" fill="#c8102e" opacity="0.55"/><circle cx="262.5" cy="211.7" r="1.36" fill="#c8102e" opacity="0.48"/><circle cx="348.5" cy="283" r="2.73" fill="#c8102e" opacity="0.58"/><circle cx="268.2" cy="303.3" r="2.22" fill="#c8102e" opacity="0.33"/><circle cx="388.2" cy="82.1" r="2.31" fill="#c8102e" opacity="0.39"/><circle cx="326.9" cy="228" r="2.5" fill="#c8102e" opacity="0.6"/><circle cx="319.2" cy="395.9" r="2.27" fill="#c8102e" opacity="0.41"/><circle cx="384.7" cy="440.8" r="2.09" fill="#c8102e" opacity="0.64"/><circle cx="176.4" cy="108.4" r="1.64" fill="#c8102e" opacity="0.33"/><circle cx="41.5" cy="185.6" r="1.23" fill="#c8102e" opacity="0.32"/><circle cx="141" cy="175.9" r="2.57" fill="#c8102e" opacity="0.63"/><circle cx="260.6" cy="327.6" r="2.05" fill="#c8102e" opacity="0.43"/><circle cx="448.1" cy="351.9" r="1.31" fill="#c8102e" opacity="0.49"/><circle cx="400.9" cy="383.7" r="1.27" fill="#c8102e" opacity="0.32"/><circle cx="393.4" cy="109.1" r="2.94" fill="#c8102e" opacity="0.5"/><circle cx="67.3" cy="262.9" r="1.77" fill="#c8102e" opacity="0.56"/><circle cx="196.1" cy="190.3" r="2.88" fill="#c8102e" opacity="0.42"/><circle cx="81.1" cy="390.7" r="2.58" fill="#c8102e" opacity="0.52"/><circle cx="19.8" cy="180.7" r="1.3" fill="#c8102e" opacity="0.6"/><circle cx="141.2" cy="121.6" r="1.86" fill="#c8102e" opacity="0.36"/><circle cx="276.2" cy="83.4" r="2.38" fill="#c8102e" opacity="0.39"/><circle cx="345.8" cy="189.6" r="2.48" fill="#c8102e" opacity="0.58"/><circle cx="210.8" cy="455" r="1.88" fill="#c8102e" opacity="0.51"/><circle cx="172.6" cy="221.3" r="2.77" fill="#c8102e" opacity="0.3"/><circle cx="281.5" cy="192.1" r="1.64" fill="#c8102e" opacity="0.53"/><circle cx="179.4" cy="272.2" r="2.19" fill="#f0c040" opacity="0.42"/><circle cx="460.7" cy="125.3" r="1.95" fill="#f0c040" opacity="0.7"/><circle cx="182.1" cy="232.9" r="2.73" fill="#f0c040" opacity="0.51"/><circle cx="119.8" cy="440.5" r="1.73" fill="#f0c040" opacity="0.48"/><circle cx="8.2" cy="68.1" r="1.46" fill="#f0c040" opacity="0.51"/><circle cx="245.4" cy="318.6" r="1.52" fill="#f0c040" opacity="0.46"/><circle cx="315.8" cy="466.1" r="2.14" fill="#f0c040" opacity="0.43"/><circle cx="454.4" cy="195.6" r="2.02" fill="#f0c040" opacity="0.37"/><circle cx="294.1" cy="239.7" r="2.39" fill="#f0c040" opacity="0.55"/><circle cx="113.8" cy="327.8" r="2.12" fill="#f0c040" opacity="0.47"/><circle cx="234.6" cy="477.3" r="1.79" fill="#f0c040" opacity="0.64"/><circle cx="341" cy="75.1" r="2.7" fill="#f0c040" opacity="0.65"/><circle cx="343.6" cy="234.7" r="2.52" fill="#f0c040" opacity="0.37"/><circle cx="439.7" cy="455.9" r="2.27" fill="#f0c040" opacity="0.66"/><circle cx="115.4" cy="391.1" r="2.18" fill="#f0c040" opacity="0.46"/><circle cx="202.2" cy="220.1" r="1.52" fill="#f0c040" opacity="0.65"/><circle cx="191.3" cy="218.2" r="1.31" fill="#f0c040" opacity="0.68"/><circle cx="6.1" cy="245.4" r="2.72" fill="#f0c040" opacity="0.62"/><circle cx="67.1" cy="338.9" r="2.2" fill="#f0c040" opacity="0.39"/><circle cx="91.3" cy="373.5" r="2.57" fill="#f0c040" opacity="0.54"/><circle cx="132.4" cy="266.5" r="2.65" fill="#f0c040" opacity="0.43"/><circle cx="311.9" cy="280.2" r="2.86" fill="#f0c040" opacity="0.39"/><circle cx="434.6" cy="150.2" r="1.08" fill="#ffffff" opacity="0.45"/><circle cx="160.5" cy="436.2" r="1.41" fill="#ffffff" opacity="0.52"/><circle cx="464.8" cy="74.7" r="1.47" fill="#ffffff" opacity="0.38"/><circle cx="419" cy="330.3" r="1.28" fill="#ffffff" opacity="0.41"/><circle cx="83.4" cy="428.1" r="0.9" fill="#ffffff" opacity="0.52"/><circle cx="197.7" cy="252.7" r="1.32" fill="#ffffff" opacity="0.44"/><circle cx="127.1" cy="343.9" r="1.42" fill="#ffffff" opacity="0.45"/><circle cx="150.6" cy="475.2" r="1.22" fill="#ffffff" opacity="0.39"/></svg>