<svg xmlns="http://www.w3.org/2000/svg" width="480" height="360" viewBox="0 0 480 360"><circle cx="94.5" cy="255.5" r="2.2" fill="#c8102e" opacity="0.56"/><circle cx="94.5" cy="262.5" r="2.2" fill="#c8102e" opacity="0.6"/><circle cx="101.5" cy="241.5" r="2.2" fill="#c8102e" opacity="0.56"/><circle cx="101.5" cy="248.5" r="2.2" fill="#c8102e" opacity="0.61"/><circle cx="101.5" cy="255.5" r="2.2" fill="#c8102e" opacity="0.65"/><circle cx="101.5" cy="262.5" r="2.2" fill="#c8102e" opacity="0.69"/><circle cx="101.5" cy="269.5" r="2.2" fill="#c8102e" opacity="0.73"/><circle cx="108.5" cy="234.5" r="2.2" fill="#c8102e" opacity="0.59"/><circle cx="108.5" cy="241.5" r="2.2" fill="#c8102e" opacity="0.65"/><circle cx="108.5" cy="248.5" r="2.2" fill="#c8102e" opacity="0.7"/><circle cx="108.5" cy="255.5" r="2.2" fill="#c8102e" opacity="0.74"/><circle cx="108.5" cy="262.5" r="2.2" fill="#c8102e" opacity="0.75"/><circle cx="108.5" cy="269.5" r="2.2" fill="#c8102e" opacity="0.75"/><circle cx="115.5" cy="220.5" r="2.2" fill="#c8102e" opacity="0.56"/><circle cx="115.5" cy="227.5" r="2.2" fill="#c8102e" opacity="0.62"/><circle cx="115.5" cy="234.5" r="2.2" fill="#c8102e" opacity="0.68"/><circle cx="115.5" cy="241.5" r="2.2" fill="#c8102e" opacity="0.73"/><circle cx="115.5" cy="248.5" r="2.2" fill="#c8102e" opacity="0.75"/><circle cx="115.5" cy="255.5" r="2.2" fill="#c8102e" opacity="0.75"/><circle cx="115.5" cy="262.5" r="2.2" fill="#c8102e" opacity="0.75"/><circle cx="115.5" cy="269.5" r="2.2" fill="#c8102e" opacity="0.75"/><circle cx="122.5" cy="213.5" r="2.2" fill="#c8102e" opacity="0.57"/><circle cx="122.5" cy="220.5" r="2.2" fill="#c8102e" opacity="0.64"/><circle cx="122.5" cy="227.5" r="2.2" fill="#c8102e" opacity="0.7"/><circle cx="122.5" cy="234.5" r="2.2" fill="#c8102e" opacity="0.75"/><circle cx="122.5" cy="241.5" r="2.2" fill="#c8102e" opacity="0.75"/><circle cx="122.5" cy="248.5" r="2.2" fill="#c8102e" opacity="0.75"/><circle cx="122.5" cy="255.5" r="2.2" fill="#c8102e" opacity="0.75"/><circle cx="122.5" cy="262.5" r="2.2" fill="#c8102e" opacity="0.75"/><circle cx="122.5" cy="269.5" r="2.2" fill="#c8102e" opacity="0.75"/><circle cx="122.5" cy="276.5" r="2.2" fill="#c8102e" opacity="0.75"/><circle cx="129.5" cy="206.5" r="2.2" fill="#c8102e" opacity="0.57"/><circle cx="129.5" cy="213.5" r="2.2" fill="#c8102e" opacity="0.64"/><circle cx="129.5" cy="220.5" r="2.2" fill="#c8102e" opacity="0.71"/><circle cx="129.5" cy="227.5" r="2.2" fill="#c8102e" opacity="0.75"/><circle cx="129.5" cy="234.5" r="2.2" fill="#c8102e" opacity="0.75"/><circle cx="129.5" cy="241.5" r="2.2" fill="#c8102e" opacity="0.75"/><circle cx="129.5" cy="248.5" r="2.2" fill="#c8102e" opacity="0.75"/><circle cx="129.5" cy="255.5" r="2.2" fill="#c8102e" opacity="0.75"/><circle cx="129.5" cy="262.5" r="2.2" fill="#c8102e" opacity="0.75"/><circle cx="129.5" cy="269.5" r="2.2" fill="#c8102e" opacity="0.75"/><circle cx="129.5" cy="276.5" r="2.2" fill="#c8102e" opacity="0.75"/><circle cx="136.5" cy="199.5" r="2.2" fill="#c8102e" opacity="0.57"/><circle cx="136.5" cy="206.5" r="2.2" fill="#c8102e" opacity="0.64"/><circle cx="136.5" cy="213.5" r="2.2" fill="#c8102e" opacity="0.71"/><circle cx="136.5" cy="220.5" r="2.2" fill="#c8102e" opacity="0.75"/><circle cx="136.5" cy="227.5" r="2.2" fill="#c8102e" opacity="0.75"/><circle cx="136.5" cy="234.5" r="2.2" fill="#c8102e" opacity="0.75"/><circle cx="136.5" cy="241.5" r="2.2" fill="#c8102e" opacity="0.75"/><circle cx="136.5" cy="248.5" r="2.2" fill="#c8102e" opacity="0.75"/><circle cx="136.5" cy="255.5" r="2.2" fill="#c8102e" opacity="0.75"/><circle cx="136.5" cy="262.5" r="2.2" fill="#c8102e" opacity="0.75"/><circle cx="136.5" cy="269.5" r="2.2" fill="#c8102e" opacity="0.75"/><circle cx="136.5" cy="276.5" r="2.2" fill="#c8102e" opacity="0.75"/><circle cx="143.5" cy="192.5" r="2.2" fill="#c8102e" opacity="0.55"/><circle cx="143.5" cy="199.5" r="2.2" fill="#c8102e" opacity="0.63"/><circle cx="143.5" cy="206.5" r="2.2" fill="#c8102e" opacity="0.71"/><circle cx="143.5" cy="213.5" r="2.2" fill="#c8102e" opacity="0.75"/><circle cx="143.5" cy="220.5" r="2.2" fill="#c8102e" opacity="0.75"/><circle cx="143.5" cy="227.5" r="2.2" fill="#c8102e" opacity="0.75"/><circle cx="143.5" cy="234.5" r="2.2" fill="#c8102e" opacity="0.75"/><circle cx="143.5" cy="241.5" r="2.2" fill="#c8102e" opacity="0.75"/><circle cx="143.5" cy="248.5" r="2.2" fill="#c8102e" opacity="0.75"/><circle cx="143.5" cy="255.5" r="2.2" fill="#c8102e" opacity="0.75"/><circle cx="143.5" cy="262.5" r="2.2" fill="#c8102e" opacity="0.75"/><circle cx="143.5" cy="269.5" r="2.2" fill="#c8102e" opacity="0.75"/><circle cx="143.5" cy="276.5" r="2.2" fill="#c8102e" opacity="0.75"/><circle cx="143.5" cy="283.5" r="2.2" fill="#c8102e" opacity="0.75"/><circle cx="150.5" cy="192.5" r="2.2" fill="#c8102e" opacity="0.61"/><circle cx="150.5" cy="199.5" r="2.2" fill="#c8102e" opacity="0.69"/><circle cx="150.5" cy="206.5" r="2.2" fill="#c8102e" opacity="0.75"/><circle cx="150.5" cy="213.5" r="2.2" fill="#c8102e" opacity="0.75"/><circle cx="150.5" cy="220.5" r="2.2" fill="#c8102e" opacity="0.75"/><circle cx="150.5" cy="227.5" r="2.2" fill="#c8102e" opacity="0.75"/><circle cx="150.5" cy="234.5" r="2.2" fill="#c8102e" opacity="0.75"/><circle cx="150.5" cy="241.5" r="2.2" fill="#c8102e" opacity="0.75"/><circle cx="150.5" cy="248.5" r="2.2" fill="#c8102e" opacity="0.75"/><circle cx="150.5" cy="255.5" r="2.2" fill="#c8102e" opacity="0.75"/><circle cx="150.5" cy="262.5" r="2.2" fill="#c8102e" opacity="0.75"/><circle cx="150.5" cy="269.5" r="2.2" fill="#c8102e" opacity="0.75"/><circle cx="150.5" cy="276.5" r="2.2" fill="#c8102e" opacity="0.75"/><circle cx="150.5" cy="283.5" r="2.2" fill="#c8102e" opacity="0.75"/><circle cx="157.5" cy="185.5" r="2.2" fill="#c8102e" opacity="0.58"/><circle cx="157.5" cy="192.5" r="2.2" fill="#c8102e" opacity="0.67"/><circle cx="157.5" cy="199.5" r="2.2" fill="#c8102e" opacity="0.75"/><circle cx="157.5" cy="206.5" r="2.2" fill="#c8102e" opacity="0.75"/><circle cx="157.5" cy="213.5" r="2.2" fill="#c8102e" opacity="0.75"/><circle cx="157.5" cy="220.5" r="2.2" fill="#c8102e" opacity="0.75"/><circle cx="157.5" cy="227.5" r="2.2" fill="#c8102e" opacity="0.75"/><circle cx="157.5" cy="234.5" r="2.2" fill="#c8102e" opacity="0.75"/><circle cx="157.5" cy="241.5" r="2.2" fill="#c8102e" opacity="0.75"/><circle cx="157.5" cy="248.5" r="2.2" fill="#c8102e" opacity="0.75"/><circle cx="157.5" cy="255.5" r="2.2" fill="#c8102e" opacity="0.75"/><circle cx="157.5" cy="262.5" r="2.2" fill="#c8102e" opacity="0.75"/><circle cx="157.5" cy="269.5" r="2.2" fill="#c8102e" opacity="0.75"/><circle cx="164.5" cy="185.5" r="2.2" fill="#c8102e" opacity="0.63"/><circle cx="164.5" cy="192.5" r="2.2" fill="#c8102e" opacity="0.72"/><circle cx="164.5" cy="199.5" r="2.2" fill="#c8102e" opacity="0.75"/><circle cx="164.5" cy="206.5" r="2.2" fill="#c8102e" opacity="0.75"/><circle cx="164.5" cy="213.5" r="2.2" fill="#c8102e" opacity="0.75"/><circle cx="164.5" cy="220.5" r="2.2" fill="#c8102e" opacity="0.75"/><circle cx="164.5" cy="227.5" r="2.2" fill="#c8102e" opacity="0.75"/><circle cx="164.5" cy="234.5" r="2.2" fill="#c8102e" opacity="0.75"/><circle cx="164.5" cy="241.5" r="2.2" fill="#c8102e" opacity="0.75"/><circle cx="164.5" cy="248.5" r="2.2" fill="#c8102e" opacity="0.75"/><circle cx="164.5" cy="255.5" r="2.2" fill="#c8102e" opacity="0.75"/><circle cx="171.5" cy="178.5" r="2.2" fill="#c8102e" opacity="0.59"/><circle cx="171.5" cy="185.5" r="2.2" fill="#c8102e" opacity="0.68"/><circle cx="171.5" cy="192.5" r="2.2" fill="#c8102e" opacity="0.75"/><circle cx="171.5" cy="199.5" r="2.2" fill="#c8102e" opacity="0.75"/><circle cx="171.5" cy="206.5" r="2.2" fill="#c8102e" opacity="0.75"/><circle cx="171.5" cy="213.5" r="2.2" fill="#c8102e" opacity="0.75"/><circle cx="171.5" cy="220.5" r="2.2" fill="#c8102e" opacity="0.75"/><circle cx="171.5" cy="227.5" r="2.2" fill="#c8102e" opacity="0.75"/><circle cx="171.5" cy="234.5" r="2.2" fill="#c8102e" opacity="0.75"/><circle cx="171.5" cy="241.5" r="2.2" fill="#c8102e" opacity="0.75"/><circle cx="171.5" cy="248.5" r="2.2" fill="#c8102e" opacity="0.75"/><circle cx="178.5" cy="178.5" r="2.2" fill="#c8102e" opacity="0.63"/><circle cx="178.5" cy="185.5" r="2.2" fill="#c8102e" opacity="0.72"/><circle cx="178.5" cy="192.5" r="2.2" fill="#c8102e" opacity="0.75"/><circle cx="178.5" cy="199.5" r="2.2" fill="#c8102e" opacity="0.75"/><circle cx="178.5" cy="206.5" r="2.2" fill="#c8102e" opacity="0.75"/><circle cx="178.5" cy="213.5" r="2.2" fill="#c8102e" opacity="0.75"/><circle cx="178.5" cy="220.5" r="2.2" fill="#c8102e" opacity="0.75"/><circle cx="178.5" cy="227.5" r="2.2" fill="#c8102e" opacity="0.75"/><circle cx="178.5" cy="234.5" r="2.2" fill="#c8102e" opacity="0.75"/><circle cx="178.5" cy="241.5" r="2.2" fill="#c8102e" opacity="0.75"/><circle cx="185.5" cy="171.5" r="2.2" fill="#c8102e" opacity="0.58"/><circle cx="185.5" cy="178.5" r="2.2" fill="#c8102e" opacity="0.67"/><circle cx="185.5" cy="185.5" r="2.2" fill="#c8102e" opacity="0.75"/><circle cx="185.5" cy="192.5" r="2.2" fill="#c8102e" opacity="0.75"/><circle cx="185.5" cy="199.5" r="2.2" fill="#c8102e" opacity="0.75"/><circle cx="185.5" cy="206.5" r="2.2" fill="#c8102e" opacity="0.75"/><circle cx="185.5" cy="213.5" r="2.2" fill="#c8102e" opacity="0.75"/><circle cx="185.5" cy="220.5" r="2.2" fill="#c8102e" opacity="0.75"/><circle cx="185.5" cy="227.5" r="2.2" fill="#c8102e" opacity="0.75"/><circle cx="185.5" cy="234.5" r="2.2" fill="#c8102e" opacity="0.75"/><circle cx="185.5" cy="241.5" r="2.2" fill="#c8102e" opacity="0.75"/><circle cx="192.5" cy="171.5" r="2.2" fill="#c8102e" opacity="0.61"/><circle cx="192.5" cy="178.5" r="2.2" fill="#c8102e" opacity="0.7"/><circle cx="192.5" cy="185.5" r="2.2" fill="#c8102e" opacity="0.75"/><circle cx="192.5" cy="192.5" r="2.2" fill="#c8102e" opacity="0.75"/><circle cx="192.5" cy="199.5" r="2.2" fill="#c8102e" opacity="0.75"/><circle cx="192.5" cy="206.5" r="2.2" fill="#c8102e" opacity="0.75"/><circle cx="192.5" cy="213.5" r="2.2" fill="#c8102e" opacity="0.75"/><circle cx="192.5" cy="220.5" r="2.2" fill="#c8102e" opacity="0.75"/><circle cx="192.5" cy="227.5" r="2.2" fill="#c8102e" opacity="0.75"/><circle cx="192.5" cy="234.5" r="2.2" fill="#c8102e" opacity="0.75"/><circle cx="199.5" cy="171.5" r="2.2" fill="#c8102e" opacity="0.64"/><circle cx="199.5" cy="178.5" r="2.2" fill="#c8102e" opacity="0.73"/><circle cx="199.5" cy="185.5" r="2.2" fill="#c8102e" opacity="0.75"/><circle cx="199.5" cy="192.5" r="2.2" fill="#c8102e" opacity="0.75"/><circle cx="199.5" cy="199.5" r="2.2" fill="#c8102e" opacity="0.75"/><circle cx="199.5" cy="206.5" r="2.2" fill="#c8102e" opacity="0.75"/><circle cx="199.5" cy="213.5" r="2.2" fill="#c8102e" opacity="0.75"/><circle cx="199.5" cy="220.5" r="2.2" fill="#c8102e" opacity="0.75"/><circle cx="199.5" cy="227.5" r="2.2" fill="#c8102e" opacity="0.75"/><circle cx="206.5" cy="164.5" r="2.2" fill="#c8102e" opacity="0.56"/><circle cx="206.5" cy="171.5" r="2.2" fill="#c8102e" opacity="0.66"/><circle cx="206.5" cy="178.5" r="2.2" fill="#c8102e" opacity="0.75"/><circle cx="206.5" cy="185.5" r="2.2" fill="#c8102e" opacity="0.75"/><circle cx="206.5" cy="192.5" r="2.2" fill="#c8102e" opacity="0.75"/><circle cx="206.5" cy="199.5" r="2.2" fill="#c8102e" opacity="0.75"/><circle cx="206.5" cy="206.5" r="2.2" fill="#c8102e" opacity="0.75"/><circle cx="206.5" cy="213.5" r="2.2" fill="#c8102e" opacity="0.75"/><circle cx="206.5" cy="220.5" r="2.2" fill="#c8102e" opacity="0.75"/><circle cx="206.5" cy="227.5" r="2.2" fill="#c8102e" opacity="0.75"/><circle cx="213.5" cy="164.5" r="2.2" fill="#c8102e" opacity="0.58"/><circle cx="213.5" cy="171.5" r="2.2" fill="#c8102e" opacity="0.68"/><circle cx="213.5" cy="178.5" r="2.2" fill="#c8102e" opacity="0.75"/><circle cx="213.5" cy="185.5" r="2.2" fill="#c8102e" opacity="0.75"/><circle cx="213.5" cy="192.5" r="2.2" fill="#c8102e" opacity="0.75"/><circle cx="213.5" cy="199.5" r="2.2" fill="#c8102e" opacity="0.75"/><circle cx="213.5" cy="206.5" r="2.2" fill="#c8102e" opacity="0.75"/><circle cx="213.5" cy="213.5" r="2.2" fill="#c8102e" opacity="0.75"/><circle cx="213.5" cy="220.5" r="2.2" fill="#c8102e" opacity="0.75"/><circle cx="213.5" cy="227.5" r="2.2" fill="#c8102e" opacity="0.75"/><circle cx="220.5" cy="164.5" r="2.2" fill="#c8102e" opacity="0.6"/><circle cx="220.5" cy="171.5" r="2.2" fill="#c8102e" opacity="0.7"/><circle cx="220.5" cy="178.5" r="2.2" fill="#c8102e" opacity="0.75"/><circle cx="220.5" cy="185.5" r="2.2" fill="#c8102e" opacity="0.75"/><circle cx="220.5" cy="192.5" r="2.2" fill="#c8102e" opacity="0.75"/><circle cx="220.5" cy="199.5" r="2.2" fill="#c8102e" opacity="0.75"/><circle cx="220.5" cy="206.5" r="2.2" fill="#c8102e" opacity="0.75"/><circle cx="220.5" cy="213.5" r="2.2" fill="#c8102e" opacity="0.75"/><circle cx="220.5" cy="220.5" r="2.2" fill="#c8102e" opacity="0.75"/><circle cx="227.5" cy="164.5" r="2.2" fill="#c8102e" opacity="0.61"/><circle cx="227.5" cy="171.5" r="2.2" fill="#c8102e" opacity="0.71"/><circle cx="227.5" cy="178.5" r="2.2" fill="#c8102e" opacity="0.75"/><circle cx="227.5" cy="185.5" r="2.2" fill="#c8102e" opacity="0.75"/><circle cx="227.5" cy="192.5" r="2.2" fill="#c8102e" opacity="0.75"/><circle cx="227.5" cy="199.5" r="2.2" fill="#c8102e" opacity="0.75"/><circle cx="227.5" cy="206.5" r="2.2" fill="#c8102e" opacity="0.75"/><circle cx="227.5" cy="213.5" r="2.2" fill="#c8102e" opacity="0.75"/><circle cx="227.5" cy="220.5" r="2.2" fill="#c8102e" opacity="0.75"/><circle cx="234.5" cy="164.5" r="2.2" fill="#c8102e" opacity="0.61"/><circle cx="234.5" cy="171.5" r="2.2" fill="#c8102e" opacity="0.71"/><circle cx="234.5" cy="178.5" r="2.2" fill="#c8102e" opacity="0.75"/><circle cx="234.5" cy="185.5" r="2.2" fill="#c8102e" opacity="0.75"/><circle cx="234.5" cy="192.5" r="2.2" fill="#c8102e" opacity="0.75"/><circle cx="234.5" cy="199.5" r="2.2" fill="#c8102e" opacity="0.75"/><circle cx="234.5" cy="206.5" r="2.2" fill="#c8102e" opacity="0.75"/><circle cx="234.5" cy="213.5" r="2.2" fill="#c8102e" opacity="0.75"/><circle cx="234.5" cy="220.5" r="2.2" fill="#c8102e" opacity="0.75"/><circle cx="241.5" cy="164.5" r="2.2" fill="#c8102e" opacity="0.61"/><circle cx="241.5" cy="171.5" r="2.2" fill="#c8102e" opacity="0.71"/><circle cx="241.5" cy="178.5" r="2.2" fill="#c8102e" opacity="0.75"/><circle cx="241.5" cy="185.5" r="2.2" fill="#c8102e" opacity="0.75"/><circle cx="241.5" cy="192.5" r="2.2" fill="#c8102e" opacity="0.75"/><circle cx="241.5" cy="199.5" r="2.2" fill="#c8102e" opacity="0.75"/><circle cx="241.5" cy="206.5" r="2.2" fill="#c8102e" opacity="0.75"/><circle cx="241.5" cy="213.5" r="2.2" fill="#c8102e" opacity="0.75"/><circle cx="241.5" cy="220.5" r="2.2" fill="#c8102e" opacity="0.75"/><circle cx="248.5" cy="164.5" r="2.2" fill="#c8102e" opacity="0.61"/><circle cx="248.5" cy="171.5" r="2.2" fill="#c8102e" opacity="0.71"/><circle cx="248.5" cy="178.5" r="2.2" fill="#c8102e" opacity="0.75"/><circle cx="248.5" cy="185.5" r="2.2" fill="#c8102e" opacity="0.75"/><circle cx="248.5" cy="192.5" r="2.2" fill="#c8102e" opacity="0.75"/><circle cx="248.5" cy="199.5" r="2.2" fill="#c8102e" opacity="0.75"/><circle cx="248.5" cy="206.5" r="2.2" fill="#c8102e" opacity="0.75"/><circle cx="248.5" cy="213.5" r="2.2" fill="#c8102e" opacity="0.75"/><circle cx="248.5" cy="220.5" r="2.2" fill="#c8102e" opacity="0.75"/><circle cx="255.5" cy="164.5" r="2.2" fill="#c8102e" opacity="0.6"/><circle cx="255.5" cy="171.5" r="2.2" fill="#c8102e" opacity="0.7"/><circle cx="255.5" cy="178.5" r="2.2" fill="#c8102e" opacity="0.75"/><circle cx="255.5" cy="185.5" r="2.2" fill="#c8102e" opacity="0.75"/><circle cx="255.5" cy="192.5" r="2.2" fill="#c8102e" opacity="0.75"/><circle cx="255.5" cy="199.5" r="2.2" fill="#c8102e" opacity="0.75"/><circle cx="255.5" cy="206.5" r="2.2" fill="#c8102e" opacity="0.75"/><circle cx="255.5" cy="213.5" r="2.2" fill="#c8102e" opacity="0.75"/><circle cx="255.5" cy="220.5" r="2.2" fill="#c8102e" opacity="0.75"/><circle cx="262.5" cy="164.5" r="2.2" fill="#c8102e" opacity="0.59"/><circle cx="262.5" cy="171.5" r="2.2" fill="#c8102e" opacity="0.69"/><circle cx="262.5" cy="178.5" r="2.2" fill="#c8102e" opacity="0.75"/><circle cx="262.5" cy="185.5" r="2.2" fill="#c8102e" opacity="0.75"/><circle cx="262.5" cy="192.5" r="2.2" fill="#c8102e" opacity="0.75"/><circle cx="262.5" cy="199.5" r="2.2" fill="#c8102e" opacity="0.75"/><circle cx="262.5" cy="206.5" r="2.2" fill="#c8102e" opacity="0.75"/><circle cx="262.5" cy="213.5" r="2.2" fill="#c8102e" opacity="0.75"/><circle cx="262.5" cy="220.5" r="2.2" fill="#c8102e" opacity="0.75"/><circle cx="262.5" cy="227.5" r="2.2" fill="#c8102e" opacity="0.75"/><circle cx="269.5" cy="164.5" r="2.2" fill="#c8102e" opacity="0.57"/><circle cx="269.5" cy="171.5" r="2.2" fill="#c8102e" opacity="0.67"/><circle cx="269.5" cy="178.5" r="2.2" fill="#c8102e" opacity="0.75"/><circle cx="269.5" cy="185.5" r="2.2" fill="#c8102e" opacity="0.75"/><circle cx="269.5" cy="192.5" r="2.2" fill="#c8102e" opacity="0.75"/><circle cx="269.5" cy="199.5" r="2.2" fill="#c8102e" opacity="0.75"/><circle cx="269.5" cy="206.5" r="2.2" fill="#c8102e" opacity="0.75"/><circle cx="269.5" cy="213.5" r="2.2" fill="#c8102e" opacity="0.75"/><circle cx="269.5" cy="220.5" r="2.2" fill="#c8102e" opacity="0.75"/><circle cx="269.5" cy="227.5" r="2.2" fill="#c8102e" opacity="0.75"/><circle cx="276.5" cy="164.5" r="2.2" fill="#c8102e" opacity="0.55"/><circle cx="276.5" cy="171.5" r="2.2" fill="#c8102e" opacity="0.65"/><circle cx="276.5" cy="178.5" r="2.2" fill="#c8102e" opacity="0.75"/><circle cx="276.5" cy="185.5" r="2.2" fill="#c8102e" opacity="0.75"/><circle cx="276.5" cy="192.5" r="2.2" fill="#c8102e" opacity="0.75"/><circle cx="276.5" cy="199.5" r="2.2" fill="#c8102e" opacity="0.75"/><circle cx="276.5" cy="206.5" r="2.2" fill="#c8102e" opacity="0.75"/><circle cx="276.5" cy="213.5" r="2.2" fill="#c8102e" opacity="0.75"/><circle cx="276.5" cy="220.5" r="2.2" fill="#c8102e" opacity="0.75"/><circle cx="276.5" cy="227.5" r="2.2" fill="#c8102e" opacity="0.75"/><circle cx="283.5" cy="171.5" r="2.2" fill="#c8102e" opacity="0.63"/><circle cx="283.5" cy="178.5" r="2.2" fill="#c8102e" opacity="0.72"/><circle cx="283.5" cy="185.5" r="2.2" fill="#c8102e" opacity="0.75"/><circle cx="283.5" cy="192.5" r="2.2" fill="#c8102e" opacity="0.75"/><circle cx="283.5" cy="199.5" r="2.2" fill="#c8102e" opacity="0.75"/><circle cx="283.5" cy="206.5" r="2.2" fill="#c8102e" opacity="0.75"/><circle cx="283.5" cy="213.5" r="2.2" fill="#c8102e" opacity="0.75"/><circle cx="283.5" cy="220.5" r="2.2" fill="#c8102e" opacity="0.75"/><circle cx="283.5" cy="227.5" r="2.2" fill="#c8102e" opacity="0.75"/><circle cx="283.5" cy="234.5" r="2.2" fill="#c8102e" opacity="0.75"/><circle cx="290.5" cy="171.5" r="2.2" fill="#c8102e" opacity="0.59"/><circle cx="290.5" cy="178.5" r="2.2" fill="#c8102e" opacity="0.69"/><circle cx="290.5" cy="185.5" r="2.2" fill="#c8102e" opacity="0.75"/><circle cx="290.5" cy="192.5" r="2.2" fill="#c8102e" opacity="0.75"/><circle cx="290.5" cy="199.5" r="2.2" fill="#c8102e" opacity="0.75"/><circle cx="290.5" cy="206.5" r="2.2" fill="#c8102e" opacity="0.75"/><circle cx="290.5" cy="213.5" r="2.2" fill="#c8102e" opacity="0.75"/><circle cx="290.5" cy="220.5" r="2.2" fill="#c8102e" opacity="0.75"/><circle cx="290.5" cy="227.5" r="2.2" fill="#c8102e" opacity="0.75"/><circle cx="290.5" cy="234.5" r="2.2" fill="#c8102e" opacity="0.75"/><circle cx="297.5" cy="171.5" r="2.2" fill="#c8102e" opacity="0.56"/><circle cx="297.5" cy="178.5" r="2.2" fill="#c8102e" opacity="0.65"/><circle cx="297.5" cy="185.5" r="2.2" fill="#c8102e" opacity="0.75"/><circle cx="297.5" cy="192.5" r="2.2" fill="#c8102e" opacity="0.75"/><circle cx="297.5" cy="199.5" r="2.2" fill="#c8102e" opacity="0.75"/><circle cx="297.5" cy="206.5" r="2.2" fill="#c8102e" opacity="0.75"/><circle cx="297.5" cy="213.5" r="2.2" fill="#c8102e" opacity="0.75"/><circle cx="297.5" cy="220.5" r="2.2" fill="#c8102e" opacity="0.75"/><circle cx="297.5" cy="227.5" r="2.2" fill="#c8102e" opacity="0.75"/><circle cx="297.5" cy="234.5" r="2.2" fill="#c8102e" opacity="0.75"/><circle cx="297.5" cy="241.5" r="2.2" fill="#c8102e" opacity="0.75"/><circle cx="304.5" cy="178.5" r="2.2" fill="#c8102e" opacity="0.61"/><circle cx="304.5" cy="185.5" r="2.2" fill="#c8102e" opacity="0.7"/><circle cx="304.5" cy="192.5" r="2.2" fill="#c8102e" opacity="0.75"/><circle cx="304.5" cy="199.5" r="2.2" fill="#c8102e" opacity="0.75"/><circle cx="304.5" cy="206.5" r="2.2" fill="#c8102e" opacity="0.75"/><circle cx="304.5" cy="213.5" r="2.2" fill="#c8102e" opacity="0.75"/><circle cx="304.5" cy="220.5" r="2.2" fill="#c8102e" opacity="0.75"/><circle cx="304.5" cy="227.5" r="2.2" fill="#c8102e" opacity="0.75"/><circle cx="304.5" cy="234.5" r="2.2" fill="#c8102e" opacity="0.75"/><circle cx="304.5" cy="241.5" r="2.2" fill="#c8102e" opacity="0.75"/><circle cx="304.5" cy="248.5" r="2.2" fill="#c8102e" opacity="0.75"/><circle cx="311.5" cy="178.5" r="2.2" fill="#c8102e" opacity="0.57"/><circle cx="311.5" cy="185.5" r="2.2" fill="#c8102e" opacity="0.66"/><circle cx="311.5" cy="192.5" r="2.2" fill="#c8102e" opacity="0.75"/><circle cx="311.5" cy="199.5" r="2.2" fill="#c8102e" opacity="0.75"/><circle cx="311.5" cy="206.5" r="2.2" fill="#c8102e" opacity="0.75"/><circle cx="311.5" cy="213.5" r="2.2" fill="#c8102e" opacity="0.75"/><circle cx="311.5" cy="220.5" r="2.2" fill="#c8102e" opacity="0.75"/><circle cx="311.5" cy="227.5" r="2.2" fill="#c8102e" opacity="0.75"/><circle cx="311.5" cy="234.5" r="2.2" fill="#c8102e" opacity="0.75"/><circle cx="311.5" cy="241.5" r="2.2" fill="#c8102e" opacity="0.75"/><circle cx="311.5" cy="248.5" r="2.2" fill="#c8102e" opacity="0.75"/><circle cx="311.5" cy="255.5" r="2.2" fill="#c8102e" opacity="0.75"/><circle cx="318.5" cy="185.5" r="2.2" fill="#c8102e" opacity="0.61"/><circle cx="318.5" cy="192.5" r="2.2" fill="#c8102e" opacity="0.7"/><circle cx="318.5" cy="199.5" r="2.2" fill="#c8102e" opacity="0.75"/><circle cx="318.5" cy="206.5" r="2.2" fill="#c8102e" opacity="0.75"/><circle cx="318.5" cy="213.5" r="2.2" fill="#c8102e" opacity="0.75"/><circle cx="318.5" cy="220.5" r="2.2" fill="#c8102e" opacity="0.75"/><circle cx="318.5" cy="227.5" r="2.2" fill="#c8102e" opacity="0.75"/><circle cx="318.5" cy="234.5" r="2.2" fill="#c8102e" opacity="0.75"/><circle cx="318.5" cy="241.5" r="2.2" fill="#c8102e" opacity="0.75"/><circle cx="318.5" cy="248.5" r="2.2" fill="#c8102e" opacity="0.75"/><circle cx="318.5" cy="255.5" r="2.2" fill="#c8102e" opacity="0.75"/><circle cx="318.5" cy="262.5" r="2.2" fill="#c8102e" opacity="0.75"/><circle cx="325.5" cy="185.5" r="2.2" fill="#c8102e" opacity="0.56"/><circle cx="325.5" cy="192.5" r="2.2" fill="#c8102e" opacity="0.64"/><circle cx="325.5" cy="199.5" r="2.2" fill="#c8102e" opacity="0.72"/><circle cx="325.5" cy="206.5" r="2.2" fill="#c8102e" opacity="0.75"/><circle cx="325.5" cy="213.5" r="2.2" fill="#c8102e" opacity="0.75"/><circle cx="325.5" cy="220.5" r="2.2" fill="#c8102e" opacity="0.75"/><circle cx="325.5" cy="227.5" r="2.2" fill="#c8102e" opacity="0.75"/><circle cx="325.5" cy="234.5" r="2.2" fill="#c8102e" opacity="0.75"/><circle cx="325.5" cy="241.5" r="2.2" fill="#c8102e" opacity="0.75"/><circle cx="325.5" cy="248.5" r="2.2" fill="#c8102e" opacity="0.75"/><circle cx="325.5" cy="255.5" r="2.2" fill="#c8102e" opacity="0.75"/><circle cx="325.5" cy="262.5" r="2.2" fill="#c8102e" opacity="0.75"/><circle cx="325.5" cy="269.5" r="2.2" fill="#c8102e" opacity="0.75"/><circle cx="325.5" cy="276.5" r="2.2" fill="#c8102e" opacity="0.75"/><circle cx="332.5" cy="192.5" r="2.2" fill="#c8102e" opacity="0.59"/><circle cx="332.5" cy="199.5" r="2.2" fill="#c8102e" opacity="0.67"/><circle cx="332.5" cy="206.5" r="2.2" fill="#c8102e" opacity="0.74"/><circle cx="332.5" cy="213.5" r="2.2" fill="#c8102e" opacity="0.75"/><circle cx="332.5" cy="220.5" r="2.2" fill="#c8102e" opacity="0.75"/><circle cx="332.5" cy="227.5" r="2.2" fill="#c8102e" opacity="0.75"/><circle cx="332.5" cy="234.5" r="2.2" fill="#c8102e" opacity="0.75"/><circle cx="332.5" cy="241.5" r="2.2" fill="#c8102e" opacity="0.75"/><circle cx="332.5" cy="248.5" r="2.2" fill="#c8102e" opacity="0.75"/><circle cx="332.5" cy="255.5" r="2.2" fill="#c8102e" opacity="0.75"/><circle cx="332.5" cy="262.5" r="2.2" fill="#c8102e" opacity="0.75"/><circle cx="332.5" cy="269.5" r="2.2" fill="#c8102e" opacity="0.75"/><circle cx="332.5" cy="276.5" r="2.2" fill="#c8102e" opacity="0.75"/><circle cx="332.5" cy="283.5" r="2.2" fill="#c8102e" opacity="0.75"/><circle cx="339.5" cy="199.5" r="2.2" fill="#c8102e" opacity="0.6"/><circle cx="339.5" cy="206.5" r="2.2" fill="#c8102e" opacity="0.68"/><circle cx="339.5" cy="213.5" r="2.2" fill="#c8102e" opacity="0.75"/><circle cx="339.5" cy="220.5" r="2.2" fill="#c8102e" opacity="0.75"/><circle cx="339.5" cy="227.5" r="2.2" fill="#c8102e" opacity="0.75"/><circle cx="339.5" cy="234.5" r="2.2" fill="#c8102e" opacity="0.75"/><circle cx="339.5" cy="241.5" r="2.2" fill="#c8102e" opacity="0.75"/><circle cx="339.5" cy="248.5" r="2.2" fill="#c8102e" opacity="0.75"/><circle cx="339.5" cy="255.5" r="2.2" fill="#c8102e" opacity="0.75"/><circle cx="339.5" cy="262.5" r="2.2" fill="#c8102e" opacity="0.75"/><circle cx="339.5" cy="269.5" r="2.2" fill="#c8102e" opacity="0.75"/><circle cx="339.5" cy="276.5" r="2.2" fill="#c8102e" opacity="0.75"/><circle cx="339.5" cy="283.5" r="2.2" fill="#c8102e" opacity="0.75"/><circle cx="346.5" cy="206.5" r="2.2" fill="#c8102e" opacity="0.61"/><circle cx="346.5" cy="213.5" r="2.2" fill="#c8102e" opacity="0.68"/><circle cx="346.5" cy="220.5" r="2.2" fill="#c8102e" opacity="0.75"/><circle cx="346.5" cy="227.5" r="2.2" fill="#c8102e" opacity="0.75"/><circle cx="346.5" cy="234.5" r="2.2" fill="#c8102e" opacity="0.75"/><circle cx="346.5" cy="241.5" r="2.2" fill="#c8102e" opacity="0.75"/><circle cx="346.5" cy="248.5" r="2.2" fill="#c8102e" opacity="0.75"/><circle cx="346.5" cy="255.5" r="2.2" fill="#c8102e" opacity="0.75"/><circle cx="346.5" cy="262.5" r="2.2" fill="#c8102e" opacity="0.75"/><circle cx="346.5" cy="269.5" r="2.2" fill="#c8102e" opacity="0.75"/><circle cx="346.5" cy="276.5" r="2.2" fill="#c8102e" opacity="0.75"/><circle cx="353.5" cy="213.5" r="2.2" fill="#c8102e" opacity="0.61"/><circle cx="353.5" cy="220.5" r="2.2" fill="#c8102e" opacity="0.68"/><circle cx="353.5" cy="227.5" r="2.2" fill="#c8102e" opacity="0.74"/><circle cx="353.5" cy="234.5" r="2.2" fill="#c8102e" opacity="0.75"/><circle cx="353.5" cy="241.5" r="2.2" fill="#c8102e" opacity="0.75"/><circle cx="353.5" cy="248.5" r="2.2" fill="#c8102e" opacity="0.75"/><circle cx="353.5" cy="255.5" r="2.2" fill="#c8102e" opacity="0.75"/><circle cx="353.5" cy="262.5" r="2.2" fill="#c8102e" opacity="0.75"/><circle cx="353.5" cy="269.5" r="2.2" fill="#c8102e" opacity="0.75"/><circle cx="353.5" cy="276.5" r="2.2" fill="#c8102e" opacity="0.75"/><circle cx="360.5" cy="220.5" r="2.2" fill="#c8102e" opacity="0.6"/><circle cx="360.5" cy="227.5" r="2.2" fill="#c8102e" opacity="0.67"/><circle cx="360.5" cy="234.5" r="2.2" fill="#c8102e" opacity="0.72"/><circle cx="360.5" cy="241.5" r="2.2" fill="#c8102e" opacity="0.75"/><circle cx="360.5" cy="248.5" r="2.2" fill="#c8102e" opacity="0.75"/><circle cx="360.5" cy="255.5" r="2.2" fill="#c8102e" opacity="0.75"/><circle cx="360.5" cy="262.5" r="2.2" fill="#c8102e" opacity="0.75"/><circle cx="360.5" cy="269.5" r="2.2" fill="#c8102e" opacity="0.75"/><circle cx="367.5" cy="227.5" r="2.2" fill="#c8102e" opacity="0.59"/><circle cx="367.5" cy="234.5" r="2.2" fill="#c8102e" opacity="0.64"/><circle cx="367.5" cy="241.5" r="2.2" fill="#c8102e" opacity="0.7"/><circle cx="367.5" cy="248.5" r="2.2" fill="#c8102e" opacity="0.75"/><circle cx="367.5" cy="255.5" r="2.2" fill="#c8102e" opacity="0.75"/><circle cx="367.5" cy="262.5" r="2.2" fill="#c8102e" opacity="0.75"/><circle cx="367.5" cy="269.5" r="2.2" fill="#c8102e" opacity="0.75"/><circle cx="374.5" cy="234.5" r="2.2" fill="#c8102e" opacity="0.56"/><circle cx="374.5" cy="241.5" r="2.2" fill="#c8102e" opacity="0.61"/><circle cx="374.5" cy="248.5" r="2.2" fill="#c8102e" opacity="0.66"/><circle cx="374.5" cy="255.5" r="2.2" fill="#c8102e" opacity="0.7"/><circle cx="374.5" cy="262.5" r="2.2" fill="#c8102e" opacity="0.75"/><circle cx="374.5" cy="269.5" r="2.2" fill="#c8102e" opacity="0.75"/><circle cx="381.5" cy="248.5" r="2.2" fill="#c8102e" opacity="0.57"/><circle cx="381.5" cy="255.5" r="2.2" fill="#c8102e" opacity="0.61"/><circle cx="381.5" cy="262.5" r="2.2" fill="#c8102e" opacity="0.65"/><circle cx="388.5" cy="262.5" r="2.2" fill="#c8102e" opacity="0.56"/><circle cx="154.7" cy="285.5" r="1.6" fill="#f0c040" opacity="0.65"/><circle cx="156" cy="282.6" r="1.6" fill="#f0c040" opacity="0.65"/><circle cx="157.3" cy="279.7" r="1.6" fill="#f0c040" opacity="0.65"/><circle cx="158.8" cy="276.8" r="1.6" fill="#f0c040" opacity="0.65"/><circle cx="160.3" cy="274" r="1.6" fill="#f0c040" opacity="0.65"/><circle cx="162" cy="271.2" r="1.6" fill="#f0c040" opacity="0.65"/><circle cx="163.7" cy="268.6" r="1.6" fill="#f0c040" opacity="0.65"/><circle cx="165.6" cy="265.9" r="1.6" fill="#f0c040" opacity="0.65"/><circle cx="167.5" cy="263.4" r="1.6" fill="#f0c040" opacity="0.65"/><circle cx="169.5" cy="260.9" r="1.6" fill="#f0c040" opacity="0.65"/><circle cx="171.6" cy="258.4" r="1.6" fill="#f0c040" opacity="0.65"/><circle cx="173.8" cy="256.1" r="1.6" fill="#f0c040" opacity="0.65"/><circle cx="176.1" cy="253.8" r="1.6" fill="#f0c040" opacity="0.65"/><circle cx="178.4" cy="251.6" r="1.6" fill="#f0c040" opacity="0.65"/><circle cx="180.9" cy="249.5" r="1.6" fill="#f0c040" opacity="0.65"/><circle cx="183.4" cy="247.5" r="1.6" fill="#f0c040" opacity="0.65"/><circle cx="185.9" cy="245.6" r="1.6" fill="#f0c040" opacity="0.65"/><circle cx="188.6" cy="243.7" r="1.6" fill="#f0c040" opacity="0.65"/><circle cx="191.2" cy="242" r="1.6" fill="#f0c040" opacity="0.65"/><circle cx="194" cy="240.3" r="1.6" fill="#f0c040" opacity="0.65"/><circle cx="196.8" cy="238.8" r="1.6" fill="#f0c040" opacity="0.65"/><circle cx="199.7" cy="237.3" r="1.6" fill="#f0c040" opacity="0.65"/><circle cx="202.6" cy="236" r="1.6" fill="#f0c040" opacity="0.65"/><circle cx="205.5" cy="234.7" r="1.6" fill="#f0c040" opacity="0.65"/><circle cx="208.5" cy="233.5" r="1.6" fill="#f0c040" opacity="0.65"/><circle cx="211.6" cy="232.5" r="1.6" fill="#f0c040" opacity="0.65"/><circle cx="214.6" cy="231.6" r="1.6" fill="#f0c040" opacity="0.65"/><circle cx="217.7" cy="230.7" r="1.6" fill="#f0c040" opacity="0.65"/><circle cx="220.9" cy="230" r="1.6" fill="#f0c040" opacity="0.65"/><circle cx="224" cy="229.4" r="1.6" fill="#f0c040" opacity="0.65"/><circle cx="227.2" cy="228.9" r="1.6" fill="#f0c040" opacity="0.65"/><circle cx="230.4" cy="228.5" r="1.6" fill="#f0c040" opacity="0.65"/><circle cx="233.6" cy="228.2" r="1.6" fill="#f0c040" opacity="0.65"/><circle cx="236.8" cy="228.1" r="1.6" fill="#f0c040" opacity="0.65"/><circle cx="240" cy="228" r="1.6" fill="#f0c040" opacity="0.65"/><circle cx="243.2" cy="228.1" r="1.6" fill="#f0c040" opacity="0.65"/><circle cx="246.4" cy="228.2" r="1.6" fill="#f0c040" opacity="0.65"/><circle cx="249.6" cy="228.5" r="1.6" fill="#f0c040" opacity="0.65"/><circle cx="252.8" cy="228.9" r="1.6" fill="#f0c040" opacity="0.65"/><circle cx="256" cy="229.4" r="1.6" fill="#f0c040" opacity="0.65"/><circle cx="259.1" cy="230" r="1.6" fill="#f0c040" opacity="0.65"/><circle cx="262.3" cy="230.7" r="1.6" fill="#f0c040" opacity="0.65"/><circle cx="265.4" cy="231.6" r="1.6" fill="#f0c040" opacity="0.65"/><circle cx="268.4" cy="232.5" r="1.6" fill="#f0c040" opacity="0.65"/><circle cx="271.5" cy="233.5" r="1.6" fill="#f0c040" opacity="0.65"/><circle cx="274.5" cy="234.7" r="1.6" fill="#f0c040" opacity="0.65"/><circle cx="277.4" cy="236" r="1.6" fill="#f0c040" opacity="0.65"/><circle cx="280.3" cy="237.3" r="1.6" fill="#f0c040" opacity="0.65"/><circle cx="283.2" cy="238.8" r="1.6" fill="#f0c040" opacity="0.65"/><circle cx="286" cy="240.3" r="1.6" fill="#f0c040" opacity="0.65"/><circle cx="288.8" cy="242" r="1.6" fill="#f0c040" opacity="0.65"/><circle cx="291.4" cy="243.7" r="1.6" fill="#f0c040" opacity="0.65"/><circle cx="294.1" cy="245.6" r="1.6" fill="#f0c040" opacity="0.65"/><circle cx="296.6" cy="247.5" r="1.6" fill="#f0c040" opacity="0.65"/><circle cx="299.1" cy="249.5" r="1.6" fill="#f0c040" opacity="0.65"/><circle cx="301.6" cy="251.6" r="1.6" fill="#f0c040" opacity="0.65"/><circle cx="303.9" cy="253.8" r="1.6" fill="#f0c040" opacity="0.65"/><circle cx="306.2" cy="256.1" r="1.6" fill="#f0c040" opacity="0.65"/><circle cx="308.4" cy="258.4" r="1.6" fill="#f0c040" opacity="0.65"/><circle cx="310.5" cy="260.9" r="1.6" fill="#f0c040" opacity="0.65"/><circle cx="312.5" cy="263.4" r="1.6" fill="#f0c040" opacity="0.65"/><circle cx="314.4" cy="265.9" r="1.6" fill="#f0c040" opacity="0.65"/><circle cx="316.3" cy="268.6" r="1.6" fill="#f0c040" opacity="0.65"/><circle cx="318" cy="271.2" r="1.6" fill="#f0c040" opacity="0.65"/><circle cx="319.7" cy="274" r="1.6" fill="#f0c040" opacity="0.65"/><circle cx="321.2" cy="276.8" r="1.6" fill="#f0c040" opacity="0.65"/><circle cx="322.7" cy="279.7" r="1.6" fill="#f0c040" opacity="0.65"/><circle cx="324" cy="282.6" r="1.6" fill="#f0c040" opacity="0.65"/><circle cx="325.3" cy="285.5" r="1.6" fill="#f0c040" opacity="0.65"/><circle cx="237" cy="317" r="1.7" fill="#f0c040" opacity="0.9"/><circle cx="237" cy="320" r="1.7" fill="#f0c040" opacity="0.9"/><circle cx="237" cy="323" r="1.7" fill="#f0c040" opacity="0.9"/><circle cx="240" cy="317" r="1.7" fill="#f0c040" opacity="0.9"/><circle cx="240" cy="320" r="1.7" fill="#f0c040" opacity="0.9"/><circle cx="240" cy="323" r="1.7" fill="#f0c040" opacity="0.9"/><circle cx="243" cy="317" r="1.7" fill="#f0c040" opacity="0.9"/><circle cx="243" cy="320" r="1.7" fill="#f0c040" opacity="0.9"/><circle cx="243" cy="323" r="1.7" fill="#f0c040" opacity="0.9"/><circle cx="279" cy="275" r="1.7" fill="#f0c040" opacity="0.9"/><circle cx="279" cy="278" r="1.7" fill="#f0c040" opacity="0.9"/><circle cx="279" cy="281" r="1.7" fill="#f0c040" opacity="0.9"/><circle cx="282" cy="275" r="1.7" fill="#f0c040" opacity="0.9"/><circle cx="282" cy="278" r="1.7" fill="#f0c040" opacity="0.9"/><circle cx="282" cy="281" r="1.7" fill="#f0c040" opacity="0.9"/><circle cx="285" cy="275" r="1.7" fill="#f0c040" opacity="0.9"/><circle cx="285" cy="278" r="1.7" fill="#f0c040" opacity="0.9"/><circle cx="285" cy="281" r="1.7" fill="#f0c040" opacity="0.9"/><circle cx="237" cy="233" r="1.7" fill="#f0c040" opacity="0.9"/><circle cx="237" cy="236" r="1.7" fill="#f0c040" opacity="0.9"/><circle cx="237" cy="239" r="1.7" fill="#f0c040" opacity="0.9"/><circle cx="240" cy="233" r="1.7" fill="#f0c040" opacity="0.9"/><circle cx="240" cy="236" r="1.7" fill="#f0c040" opacity="0.9"/><circle cx="240" cy="239" r="1.7" fill="#f0c040" opacity="0.9"/><circle cx="243" cy="233" r="1.7" fill="#f0c040" opacity="0.9"/><circle cx="243" cy="236" r="1.7" fill="#f0c040" opacity="0.9"/><circle cx="243" cy="239" r="1.7" fill="#f0c040" opacity="0.9"/><circle cx="195" cy="275" r="1.7" fill="#f0c040" opacity="0.9"/><circle cx="195" cy="278" r="1.7" fill="#f0c040" opacity="0.9"/><circle cx="195" cy="281" r="1.7" fill="#f0c040" opacity="0.9"/><circle cx="198" cy="275" r="1.7" fill="#f0c040" opacity="0.9"/><circle cx="198" cy="278" r="1.7" fill="#f0c040" opacity="0.9"/><circle cx="198" cy="281" r="1.7" fill="#f0c040" opacity="0.9"/><circle cx="201" cy="275" r="1.7" fill="#f0c040" opacity="0.9"/><circle cx="201" cy="278" r="1.7" fill="#f0c040" opacity="0.9"/><circle cx="201" cy="281" r="1.7" fill="#f0c040" opacity="0.9"/><circle cx="245.3" cy="314.8" r="1.2" fill="#f0c040" opacity="0.55"/><circle cx="250.5" cy="309.5" r="1.2" fill="#f0c040" opacity="0.55"/><circle cx="255.8" cy="304.3" r="1.2" fill="#f0c040" opacity="0.55"/><circle cx="261" cy="299" r="1.2" fill="#f0c040" opacity="0.55"/><circle cx="266.3" cy="293.8" r="1.2" fill="#f0c040" opacity="0.55"/><circle cx="271.5" cy="288.5" r="1.2" fill="#f0c040" opacity="0.55"/><circle cx="276.8" cy="283.3" r="1.2" fill="#f0c040" opacity="0.55"/><circle cx="276.8" cy="272.8" r="1.2" fill="#f0c040" opacity="0.55"/><circle cx="271.5" cy="267.5" r="1.2" fill="#f0c040" opacity="0.55"/><circle cx="266.3" cy="262.3" r="1.2" fill="#f0c040" opacity="0.55"/><circle cx="261" cy="257" r="1.2" fill="#f0c040" opacity="0.55"/><circle cx="255.8" cy="251.8" r="1.2" fill="#f0c040" opacity="0.55"/><circle cx="250.5" cy="246.5" r="1.2" fill="#f0c040" opacity="0.55"/><circle cx="245.3" cy="241.3" r="1.2" fill="#f0c040" opacity="0.55"/><circle cx="234.8" cy="241.3" r="1.2" fill="#f0c040" opacity="0.55"/><circle cx="229.5" cy="246.5" r="1.2" fill="#f0c040" opacity="0.55"/><circle cx="224.3" cy="251.8" r="1.2" fill="#f0c040" opacity="0.55"/><circle cx="219" cy="257" r="1.2" fill="#f0c040" opacity="0.55"/><circle cx="213.8" cy="262.3" r="1.2" fill="#f0c040" opacity="0.55"/><circle cx="208.5" cy="267.5" r="1.2" fill="#f0c040" opacity="0.55"/><circle cx="203.3" cy="272.8" r="1.2" fill="#f0c040" opacity="0.55"/><circle cx="203.3" cy="283.3" r="1.2" fill="#f0c040" opacity="0.55"/><circle cx="208.5" cy="288.5" r="1.2" fill="#f0c040" opacity="0.55"/><circle cx="213.8" cy="293.8" r="1.2" fill="#f0c040" opacity="0.55"/><circle cx="219" cy="299" r="1.2" fill="#f0c040" opacity="0.55"/><circle cx="224.3" cy="304.3" r="1.2" fill="#f0c040" opacity="0.55"/><circle cx="229.5" cy="309.5" r="1.2" fill="#f0c040" opacity="0.55"/><circle cx="234.8" cy="314.8" r="1.2" fill="#f0c040" opacity="0.55"/><circle cx="237.5" cy="279.7" r="1.5" fill="#ffffff" opacity="0.75"/><circle cx="237.5" cy="282.2" r="1.5" fill="#ffffff" opacity="0.75"/><circle cx="237.5" cy="284.7" r="1.5" fill="#ffffff" opacity="0.75"/><circle cx="240" cy="279.7" r="1.5" fill="#ffffff" opacity="0.75"/><circle cx="240" cy="282.2" r="1.5" fill="#ffffff" opacity="0.75"/><circle cx="240" cy="284.7" r="1.5" fill="#ffffff" opacity="0.75"/><circle cx="242.5" cy="279.7" r="1.5" fill="#ffffff" opacity="0.75"/><circle cx="242.5" cy="282.2" r="1.5" fill="#ffffff" opacity="0.75"/><circle cx="242.5" cy="284.7" r="1.5" fill="#ffffff" opacity="0.75"/><circle cx="97.5" cy="220.2" r="1.6" fill="#ffd965" opacity="0.85"/><circle cx="97.5" cy="215.2" r="1.6" fill="#ffd965" opacity="0.85"/><circle cx="97.5" cy="210.2" r="1.6" fill="#ffd965" opacity="0.85"/><circle cx="97.5" cy="205.2" r="1.6" fill="#ffd965" opacity="0.85"/><circle cx="97.5" cy="199.2" r="2.3" fill="#ffffff" opacity="1"/><circle cx="164.8" cy="158.7" r="1.6" fill="#ffd965" opacity="0.85"/><circle cx="164.8" cy="153.7" r="1.6" fill="#ffd965" opacity="0.85"/><circle cx="164.8" cy="148.7" r="1.6" fill="#ffd965" opacity="0.85"/><circle cx="164.8" cy="143.7" r="1.6" fill="#ffd965" opacity="0.85"/><circle cx="164.8" cy="137.7" r="2.3" fill="#ffffff" opacity="1"/><circle cx="315.2" cy="158.7" r="1.6" fill="#ffd965" opacity="0.85"/><circle cx="315.2" cy="153.7" r="1.6" fill="#ffd965" opacity="0.85"/><circle cx="315.2" cy="148.7" r="1.6" fill="#ffd965" opacity="0.85"/><circle cx="315.2" cy="143.7" r="1.6" fill="#ffd965" opacity="0.85"/><circle cx="315.2" cy="137.7" r="2.3" fill="#ffffff" opacity="1"/><circle cx="382.5" cy="220.2" r="1.6" fill="#ffd965" opacity="0.85"/><circle cx="382.5" cy="215.2" r="1.6" fill="#ffd965" opacity="0.85"/><circle cx="382.5" cy="210.2" r="1.6" fill="#ffd965" opacity="0.85"/><circle cx="382.5" cy="205.2" r="1.6" fill="#ffd965" opacity="0.85"/><circle cx="382.5" cy="199.2" r="2.3" fill="#ffffff" opacity="1"/><circle cx="104" cy="224.8" r="1.4" fill="#8a0a1e" opacity="0.5"/><circle cx="109.2" cy="217.8" r="1.4" fill="#8a0a1e" opacity="0.5"/><circle cx="114.7" cy="211.1" r="1.4" fill="#8a0a1e" opacity="0.5"/><circle cx="120.6" cy="204.7" r="1.4" fill="#8a0a1e" opacity="0.5"/><circle cx="126.8" cy="198.6" r="1.4" fill="#8a0a1e" opacity="0.5"/><circle cx="133.3" cy="192.8" r="1.4" fill="#8a0a1e" opacity="0.5"/><circle cx="140.1" cy="187.4" r="1.4" fill="#8a0a1e" opacity="0.5"/><circle cx="147.2" cy="182.4" r="1.4" fill="#8a0a1e" opacity="0.5"/><circle cx="154.5" cy="177.7" r="1.4" fill="#8a0a1e" opacity="0.5"/><circle cx="162.1" cy="173.4" r="1.4" fill="#8a0a1e" opacity="0.5"/><circle cx="169.8" cy="169.6" r="1.4" fill="#8a0a1e" opacity="0.5"/><circle cx="177.8" cy="166.1" r="1.4" fill="#8a0a1e" opacity="0.5"/><circle cx="186" cy="163" r="1.4" fill="#8a0a1e" opacity="0.5"/><circle cx="194.2" cy="160.4" r="1.4" fill="#8a0a1e" opacity="0.5"/><circle cx="202.7" cy="158.3" r="1.4" fill="#8a0a1e" opacity="0.5"/><circle cx="211.2" cy="156.5" r="1.4" fill="#8a0a1e" opacity="0.5"/><circle cx="219.8" cy="155.2" r="1.4" fill="#8a0a1e" opacity="0.5"/><circle cx="228.4" cy="154.4" r="1.4" fill="#8a0a1e" opacity="0.5"/><circle cx="237.1" cy="154" r="1.4" fill="#8a0a1e" opacity="0.5"/><circle cx="245.8" cy="154.1" r="1.4" fill="#8a0a1e" opacity="0.5"/><circle cx="254.5" cy="154.6" r="1.4" fill="#8a0a1e" opacity="0.5"/><circle cx="263.1" cy="155.6" r="1.4" fill="#8a0a1e" opacity="0.5"/><circle cx="271.7" cy="157" r="1.4" fill="#8a0a1e" opacity="0.5"/><circle cx="280.2" cy="158.9" r="1.4" fill="#8a0a1e" opacity="0.5"/><circle cx="288.5" cy="161.3" r="1.4" fill="#8a0a1e" opacity="0.5"/><circle cx="296.8" cy="164" r="1.4" fill="#8a0a1e" opacity="0.5"/><circle cx="304.9" cy="167.2" r="1.4" fill="#8a0a1e" opacity="0.5"/><circle cx="312.8" cy="170.8" r="1.4" fill="#8a0a1e" opacity="0.5"/><circle cx="320.5" cy="174.8" r="1.4" fill="#8a0a1e" opacity="0.5"/><circle cx="328" cy="179.2" r="1.4" fill="#8a0a1e" opacity="0.5"/><circle cx="335.2" cy="184" r="1.4" fill="#8a0a1e" opacity="0.5"/><circle cx="342.2" cy="189.2" r="1.4" fill="#8a0a1e" opacity="0.5"/><circle cx="348.9" cy="194.7" r="1.4" fill="#8a0a1e" opacity="0.5"/><circle cx="355.3" cy="200.6" r="1.4" fill="#8a0a1e" opacity="0.5"/><circle cx="361.4" cy="206.8" r="1.4" fill="#8a0a1e" opacity="0.5"/><circle cx="367.2" cy="213.3" r="1.4" fill="#8a0a1e" opacity="0.5"/><circle cx="372.6" cy="220.1" r="1.4" fill="#8a0a1e" opacity="0.5"/></svg>